<svg xmlns="http://www.w3.org/2000/svg" version="1.1" xmlns:xlink="http://www.w3.org/1999/xlink" width="1000" height="1000"><style>
    #light-icon {
      display: inline;
    }
    #dark-icon {
      display: none;
    }

    @media (prefers-color-scheme: dark) {
      #light-icon {
        display: none;
      }
      #dark-icon {
        display: inline;
      }
    }
  </style><g id="light-icon"><svg xmlns="http://www.w3.org/2000/svg" version="1.1" xmlns:xlink="http://www.w3.org/1999/xlink" width="1000" height="1000"><g clip-path="url(#SvgjsClipPath1054)"><rect width="1000" height="1000" fill="#00275d"></rect><g transform="matrix(3.5,0,0,3.5,150,150)"><svg xmlns="http://www.w3.org/2000/svg" version="1.1" xmlns:xlink="http://www.w3.org/1999/xlink" width="200" height="200"><svg xmlns="http://www.w3.org/2000/svg" version="1.1" xmlns:xlink="http://www.w3.org/1999/xlink" viewBox="0 0 200 200"><rect width="200" height="200" fill="url('#gradient')"></rect><defs><linearGradient id="gradient" gradientTransform="rotate(224 0.5 0.5)"><stop offset="0%" stop-color="#004080"></stop><stop offset="100%" stop-color="#00275d"></stop></linearGradient><clipPath id="SvgjsClipPath1054"><rect width="1000" height="1000" x="0" y="0" rx="350" ry="350"></rect></clipPath></defs><g><g fill="#ffffff" transform="matrix(5.792583280955374,0,0,5.792583280955374,3.783858939209196,141.18464276747162)" stroke="#778ca7" stroke-width="0"><path d="M4.50-14.22L4.50-2.64L10.47-2.64L10.47 0L1.07 0L1.07-14.22L4.50-14.22ZM15.34-14.22L15.34-2.64L21.31-2.64L21.31 0L11.91 0L11.91-14.22L15.34-14.22ZM26.18-14.22L26.18-2.64L32.15-2.64L32.15 0L22.75 0L22.75-14.22L26.18-14.22Z"></path></g></g></svg></svg></g></g></svg></g><g id="dark-icon"><svg xmlns="http://www.w3.org/2000/svg" version="1.1" xmlns:xlink="http://www.w3.org/1999/xlink" width="1000" height="1000"><g><g transform="matrix(5,0,0,5,0,0)" style="filter: invert(100%)"><svg xmlns="http://www.w3.org/2000/svg" version="1.1" xmlns:xlink="http://www.w3.org/1999/xlink" width="200" height="200"><svg xmlns="http://www.w3.org/2000/svg" version="1.1" xmlns:xlink="http://www.w3.org/1999/xlink" viewBox="0 0 200 200"><rect width="200" height="200" fill="url('#gradient')"></rect><defs><linearGradient id="gradient" gradientTransform="rotate(224 0.5 0.5)"><stop offset="0%" stop-color="#004080"></stop><stop offset="100%" stop-color="#00275d"></stop></linearGradient></defs><g><g fill="#ffffff" transform="matrix(5.792583280955374,0,0,5.792583280955374,3.783858939209196,141.18464276747162)" stroke="#778ca7" stroke-width="0"><path d="M4.50-14.22L4.50-2.64L10.47-2.64L10.47 0L1.07 0L1.07-14.22L4.50-14.22ZM15.34-14.22L15.34-2.64L21.31-2.64L21.31 0L11.91 0L11.91-14.22L15.34-14.22ZM26.18-14.22L26.18-2.64L32.15-2.64L32.15 0L22.75 0L22.75-14.22L26.18-14.22Z"></path></g></g></svg></svg></g></g></svg></g></svg>